<?xml version="1.0" encoding="UTF-8"?>
<svg id="_レイヤー_2" data-name="レイヤー 2" xmlns="http://www.w3.org/2000/svg" viewBox="0 0 674 98.51">
  <defs>
    <style>
      .cls-1 {
        fill: #333;
      }
    </style>
  </defs>
  <g id="_レイヤー_1-2" data-name="レイヤー 1">
    <g>
      <path class="cls-1" d="m30.92,31.07v11.22c0,1.24,1.01,2.25,2.25,2.25h33.75c1.24,0,2.25,1.01,2.25,2.25v18.82c0,1.24-1.01,2.25-2.25,2.25h-33.75c-1.24,0-2.25,1.01-2.25,2.25v24.84c0,1.24-1.01,2.25-2.25,2.25H2.25c-1.24,0-2.25-1.01-2.25-2.25V7.75c0-1.24,1.01-2.25,2.25-2.25h70.04c1.24,0,2.25,1.01,2.25,2.25v18.82c0,1.24-1.01,2.25-2.25,2.25h-39.12c-1.24,0-2.25,1.01-2.25,2.25Z"/>
      <path class="cls-1" d="m75.61,61.31c0-21.75,17.42-37.07,41.66-37.07s41.66,15.33,41.66,37.07-17.29,37.2-41.66,37.2-41.66-15.46-41.66-37.2Zm53.32,0c0-9.3-5.11-14.02-11.66-14.02s-11.66,4.72-11.66,14.02,5.11,14.15,11.66,14.15,11.66-4.85,11.66-14.15Z"/>
      <path class="cls-1" d="m245.98,56.33v38.62c0,1.24-1.01,2.25-2.25,2.25h-25.1c-1.24,0-2.25-1.01-2.25-2.25v-33.51c0-8.91-3.41-12.31-8.78-12.31-6.03,0-11.13,3.8-11.13,14.41v31.42c0,1.24-1.01,2.25-2.25,2.25h-25.1c-1.24,0-2.25-1.01-2.25-2.25V27.79c0-1.24,1.01-2.25,2.25-2.25h23.66c1.24,0,2.25,1.01,2.25,2.25h0c0,1.83,2.06,2.88,3.55,1.83,5.11-3.61,11.33-5.39,18.06-5.39,16.51,0,29.34,9.56,29.34,32.09Z"/>
      <path class="cls-1" d="m309.43,92.85c.38,1.09-.12,2.31-1.18,2.78-4.44,1.98-10.32,2.88-16.39,2.88-19.78,0-31.31-9.3-31.31-29.08v-16.09c0-1.24-1.01-2.25-2.25-2.25h-5.32c-1.24,0-2.25-1.01-2.25-2.25v-17.11c0-1.24,1.01-2.25,2.25-2.25h5.32c1.24,0,2.25-1.01,2.25-2.25v-15.54c0-1.24,1.01-2.25,2.25-2.25h25.1c1.24,0,2.25,1.01,2.25,2.25v15.54c0,1.24,1.01,2.25,2.25,2.25h10.17c1.24,0,2.25,1.01,2.25,2.25v17.11c0,1.24-1.01,2.25-2.25,2.25h-10.17c-1.24,0-2.25,1.01-2.25,2.25v15.83c0,4.45,2.62,6.94,6.16,6.94,1.55,0,3.1-.28,4.54-.85,1.21-.48,2.57.11,2.99,1.34l5.59,16.25Z"/>
      <path class="cls-1" d="m348.61,31.07v11.22c0,1.24,1.01,2.25,2.25,2.25h33.75c1.24,0,2.25,1.01,2.25,2.25v18.82c0,1.24-1.01,2.25-2.25,2.25h-33.75c-1.24,0-2.25,1.01-2.25,2.25v24.84c0,1.24-1.01,2.25-2.25,2.25h-26.41c-1.24,0-2.25-1.01-2.25-2.25V7.75c0-1.24,1.01-2.25,2.25-2.25h70.04c1.24,0,2.25,1.01,2.25,2.25v18.82c0,1.24-1.01,2.25-2.25,2.25h-39.12c-1.24,0-2.25,1.01-2.25,2.25Z"/>
      <path class="cls-1" d="m400.66,0h25.1c1.24,0,2.25,1.01,2.25,2.25v92.7c0,1.24-1.01,2.25-2.25,2.25h-25.1c-1.24,0-2.25-1.01-2.25-2.25V2.25c0-1.24,1.01-2.25,2.25-2.25Z"/>
      <path class="cls-1" d="m510.42,58.69v36.26c0,1.24-1.01,2.25-2.25,2.25h-23.01c-1.24,0-2.25-1.01-2.25-2.25v-.23c0-2-2.38-2.97-3.83-1.6-3.81,3.61-9.32,5.39-16.48,5.39-17.55,0-26.59-9.96-26.59-22.27,0-13.89,10.48-21.62,32.75-21.62h8.8c1.72,0,2.82-1.87,1.97-3.36-1.9-3.31-5.87-5.02-12.34-5.02-5.56,0-11.71,1.57-16.32,4.29-1.12.66-2.57.2-3.13-.98l-7.41-15.32c-.52-1.08-.11-2.39.95-2.96,8.33-4.55,20.03-7.04,30.37-7.04,24.63,0,38.78,10.61,38.78,34.45Zm-29.61,14.79v-2.32c0-1.24-1.01-2.25-2.25-2.25h-5.09c-6.29,0-9.04,2.1-9.04,6.03,0,3.28,2.62,5.76,7.07,5.76,3.95,0,7.52-1.98,9.16-6.42.09-.25.14-.53.14-.79Z"/>
      <path class="cls-1" d="m518.18,89.54l6.37-15.31c.51-1.22,1.94-1.72,3.11-1.13,6.61,3.33,15.22,5.24,22.87,5.24,7.21,0,9.17-1.31,9.17-3.41,0-7.34-41.26,2.49-41.26-26.2,0-13.49,12.58-24.5,36.68-24.5,9.6,0,19.75,1.65,27.23,4.95,1.12.49,1.63,1.8,1.16,2.93l-6.36,15.29c-.5,1.19-1.89,1.71-3.06,1.15-6.62-3.18-13.13-4.14-18.58-4.14-7.6,0-9.69,1.7-9.69,3.41,0,7.47,41.13-2.23,41.13,26.46,0,12.97-12.18,24.23-37.07,24.23-11.33,0-23.11-2.44-30.63-6.1-1.06-.52-1.52-1.79-1.06-2.88Z"/>
      <path class="cls-1" d="m674,56.33v38.62c0,1.24-1.01,2.25-2.25,2.25h-25.1c-1.24,0-2.25-1.01-2.25-2.25v-33.51c0-8.91-3.41-12.31-8.78-12.31-6.03,0-11.13,3.8-11.13,14.41v31.42c0,1.24-1.01,2.25-2.25,2.25h-25.1c-1.24,0-2.25-1.01-2.25-2.25V2.25c0-1.24,1.01-2.25,2.25-2.25h25.1c1.24,0,2.25,1.01,2.25,2.25v24.62c0,1.75,1.93,2.85,3.41,1.92,4.85-3.04,10.55-4.56,16.76-4.56,16.51,0,29.34,9.56,29.34,32.09Z"/>
    </g>
  </g>
</svg>